# Blender v2.79 (sub 0) OBJ File: ''
# www.blender.org
mtllib arrow.mtl
o Cone
v -1.735270 0.781234 -0.862029
v -1.737228 0.729949 -0.842814
v -1.739110 0.680634 -0.785909
v -1.740846 0.635186 -0.693499
v -1.742367 0.595350 -0.569136
v -1.743615 0.562658 -0.417599
v -1.744542 0.538365 -0.244712
v -1.745113 0.523406 -0.057119
v -1.745306 0.518354 0.137971
v -1.745113 0.523406 0.333061
v -1.744542 0.538365 0.520654
v -1.743615 0.562658 0.693541
v -1.742367 0.595350 0.845078
v -1.740846 0.635186 0.969441
v -1.739110 0.680634 1.061851
v -1.737228 0.729949 1.118756
v -1.735270 0.781234 1.137971
v -1.733311 0.832519 1.118756
v -1.731429 0.881834 1.061850
v -1.729693 0.927282 0.969440
v -1.728173 0.967118 0.845077
v -1.726924 0.999810 0.693541
v -1.725997 1.024103 0.520654
v -3.733814 0.857539 0.137971
v -1.725425 1.039062 0.333060
v -1.725233 1.044113 0.137970
v -1.725425 1.039062 -0.057120
v -1.725997 1.024103 -0.244714
v -1.726924 0.999810 -0.417600
v -1.728173 0.967117 -0.569137
v -1.729693 0.927281 -0.693499
v -1.731429 0.881833 -0.785909
v -1.733311 0.832519 -0.842815
vn 0.4359 0.3011 0.8481
vn 0.3495 0.7023 0.6202
vn 0.2748 0.8607 0.4285
vn 0.2283 0.9264 0.2995
vn 0.2000 0.9574 0.2082
vn 0.1827 0.9735 0.1378
vn 0.1727 0.9818 0.0788
vn 0.1681 0.9854 0.0257
vn 0.1681 0.9854 -0.0257
vn 0.1727 0.9818 -0.0788
vn 0.1827 0.9735 -0.1378
vn 0.2000 0.9574 -0.2082
vn 0.2283 0.9264 -0.2995
vn 0.2748 0.8607 -0.4285
vn 0.3495 0.7023 -0.6202
vn 0.4359 0.3011 -0.8481
vn 0.4116 -0.3335 -0.8481
vn 0.2950 -0.7269 -0.6202
vn 0.2084 -0.8792 -0.4285
vn 0.1570 -0.9411 -0.2995
vn 0.1264 -0.9699 -0.2082
vn 0.1079 -0.9846 -0.1378
vn 0.0973 -0.9921 -0.0788
vn 0.0925 -0.9954 -0.0257
vn 0.0925 -0.9954 0.0257
vn 0.0973 -0.9921 0.0788
vn 0.1079 -0.9846 0.1378
vn 0.1264 -0.9699 0.2082
vn 0.1570 -0.9411 0.2995
vn 0.2084 -0.8792 0.4285
vn 0.2950 -0.7269 0.6202
vn 0.4116 -0.3335 0.8481
vn -0.9993 0.0382 -0.0000
usemtl None
s off
f 1//1 24//1 2//1
f 2//2 24//2 3//2
f 3//3 24//3 4//3
f 4//4 24//4 5//4
f 5//5 24//5 6//5
f 6//6 24//6 7//6
f 7//7 24//7 8//7
f 8//8 24//8 9//8
f 9//9 24//9 10//9
f 10//10 24//10 11//10
f 11//11 24//11 12//11
f 12//12 24//12 13//12
f 13//13 24//13 14//13
f 14//14 24//14 15//14
f 15//15 24//15 16//15
f 16//16 24//16 17//16
f 17//17 24//17 18//17
f 18//18 24//18 19//18
f 19//19 24//19 20//19
f 20//20 24//20 21//20
f 21//21 24//21 22//21
f 22//22 24//22 23//22
f 23//23 24//23 25//23
f 25//24 24//24 26//24
f 26//25 24//25 27//25
f 27//26 24//26 28//26
f 28//27 24//27 29//27
f 29//28 24//28 30//28
f 30//29 24//29 31//29
f 31//30 24//30 32//30
f 32//31 24//31 33//31
f 33//32 24//32 1//32
f 1//33 2//33 3//33 4//33 5//33 6//33 7//33 8//33 9//33 10//33 11//33 12//33 13//33 14//33 15//33 16//33 17//33 18//33 19//33 20//33 21//33 22//33 23//33 25//33 26//33 27//33 28//33 29//33 30//33 31//33 32//33 33//33
o Cube_Cube.001
v 1.772656 0.869284 0.639183
v 1.772656 0.712663 0.639183
v 1.772656 0.869284 -0.364839
v 1.772656 0.712663 -0.364839
v -1.772656 0.869284 0.639183
v -1.772656 0.712663 0.639183
v -1.772656 0.869284 -0.364839
v -1.772656 0.712663 -0.364839
vn 1.0000 0.0000 0.0000
vn 0.0000 0.0000 -1.0000
vn -1.0000 0.0000 0.0000
vn 0.0000 0.0000 1.0000
vn 0.0000 1.0000 0.0000
vn 0.0000 -1.0000 0.0000
usemtl None
s off
f 34//34 35//34 37//34 36//34
f 36//35 37//35 41//35 40//35
f 40//36 41//36 39//36 38//36
f 38//37 39//37 35//37 34//37
f 36//38 40//38 38//38 34//38
f 41//39 37//39 35//39 39//39
