# Blender v2.79 (sub 0) OBJ File: 'paperball.blend'
# www.blender.org
mtllib paperball.mtl
o Icosphere
v 0.077793 -0.209750 -0.007348
v 0.158047 -0.091453 0.069796
v -0.032830 -0.056880 0.142577
v -0.156180 -0.096748 -0.042403
v -0.022009 -0.115045 -0.146714
v 0.183889 -0.075391 -0.130063
v 0.160722 0.126831 0.044988
v -0.124928 0.048388 0.051875
v -0.122016 0.082139 -0.147548
v 0.105967 0.077404 -0.180911
v 0.149879 0.069950 -0.094115
v 0.057842 0.192695 -0.070165
v -0.005314 -0.086482 0.046582
v 0.180531 -0.112908 0.017166
v 0.075279 -0.112452 0.119399
v 0.194760 -0.068647 -0.041414
v 0.102250 -0.170408 -0.097395
v -0.070599 -0.176968 -0.063452
v -0.115190 -0.072583 0.072447
v -0.004533 -0.166893 -0.146317
v -0.101635 -0.140952 -0.052207
v 0.075279 -0.112452 -0.204205
v 0.138809 -0.043395 0.017751
v 0.175921 -0.038812 -0.168523
v 0.034025 -0.001531 0.070732
v 0.130883 -0.002009 0.126454
v -0.126115 -0.097124 0.009046
v -0.094852 -0.007305 0.119400
v -0.094852 -0.007305 -0.204206
v -0.164772 -0.017508 -0.079828
v 0.166723 0.012197 -0.165105
v 0.090227 0.022330 -0.203812
v 0.139105 0.147871 0.044017
v -0.084689 0.113588 0.105855
v -0.138170 0.045838 -0.076938
v -0.032499 0.022638 -0.240881
v 0.105994 0.084396 -0.125783
v 0.055197 0.162826 0.057596
v 0.127851 0.162826 -0.042403
v 0.013205 0.147081 0.002300
v -0.080970 0.165927 -0.113991
v -0.043909 0.167612 -0.125392
v -0.062359 -0.144944 0.057596
v -0.073508 -0.023765 0.120809
v -0.093901 -0.140744 -0.002213
v -0.040041 -0.127455 0.060369
v 0.107727 0.029172 0.112843
v 0.037788 0.067615 0.097128
vn 0.0993 -0.3419 0.9345
vn 0.9298 0.1473 0.3372
vn -0.3971 -0.5792 0.7119
vn -0.1299 -0.9666 -0.2211
vn 0.1370 -0.9208 -0.3651
vn 0.6697 0.6524 0.3549
vn 0.7788 -0.1502 0.6090
vn 0.6423 0.6710 -0.3704
vn -0.4886 -0.6443 -0.5883
vn 0.5974 -0.1942 -0.7781
vn 0.9456 0.3209 -0.0532
vn -0.1346 0.8416 0.5231
vn -0.8540 0.1436 0.5001
vn 0.0711 -0.4318 -0.8992
vn -0.9832 -0.1795 0.0330
vn 0.1975 0.2467 0.9488
vn -0.6244 0.6894 -0.3673
vn -0.9006 0.4343 0.0172
vn 0.0888 0.6249 -0.7757
vn 0.6103 0.4909 -0.6217
vn 0.4313 0.1915 -0.8816
vn 0.3505 0.6346 -0.6888
vn 0.4822 0.8691 -0.1105
vn -0.1143 0.9668 -0.2286
vn -0.2620 0.5886 -0.7648
vn -0.4347 0.5102 -0.7421
vn -0.2886 0.8804 0.3764
vn -0.6381 0.4878 0.5958
vn -0.5707 0.8201 0.0424
vn -0.5445 0.8192 0.1802
vn -0.3360 0.9418 -0.0130
vn 0.2141 0.3022 0.9289
vn 0.3065 0.9254 0.2227
vn 0.1960 0.9702 0.1424
vn 0.9594 0.2710 -0.0780
vn 0.6013 0.5442 -0.5850
vn 0.5850 0.0512 0.8094
vn 0.7392 0.6681 -0.0851
vn 0.2765 0.3006 -0.9128
vn 0.1404 -0.8704 -0.4720
vn -0.5864 0.2989 -0.7529
vn -0.9218 0.3876 -0.0116
vn -0.7548 0.2901 0.5882
vn -0.9945 -0.0221 0.1027
vn -0.8628 0.1274 0.4893
vn 0.2095 -0.0812 0.9744
vn 0.3553 0.0823 0.9311
vn -0.3812 -0.4294 -0.8187
vn 0.9969 -0.0122 0.0773
vn 0.9963 -0.0132 0.0852
vn 0.4635 0.2240 -0.8573
vn 0.4460 -0.0469 -0.8938
vn -0.5090 0.0590 -0.8587
vn -0.8724 0.0435 -0.4869
vn -0.7453 -0.4838 -0.4587
vn -0.4771 -0.4171 -0.7736
vn -0.9357 -0.0926 0.3404
vn -0.9655 0.2510 0.0692
vn -0.4744 -0.5568 0.6818
vn -0.4134 0.5531 0.7233
vn -0.4887 0.1917 0.8511
vn 0.5455 -0.3240 0.7730
vn 0.9754 0.0989 0.1968
vn 0.5135 0.8492 0.1232
vn 0.9885 0.0814 -0.1274
vn 0.5649 -0.6570 -0.4992
vn 0.2043 -0.8378 -0.5062
vn -0.4975 -0.1742 -0.8498
vn -0.7078 -0.2436 -0.6631
vn -0.6894 -0.4070 -0.5992
vn 0.2106 0.4521 -0.8668
vn -0.6719 -0.6773 0.2998
vn -0.5488 -0.8028 0.2330
vn -0.2031 -0.4675 0.8604
vn 0.7507 -0.6594 -0.0419
vn 0.7807 -0.5750 -0.2448
vn 0.6960 -0.7079 -0.1203
vn -0.4256 -0.8919 0.1530
vn -0.1644 -0.9725 -0.1649
vn 0.4819 -0.7200 0.4994
vn 0.0102 -0.7592 0.6508
vn 0.3999 -0.8808 0.2535
usemtl Material.001
s off
f 1//1 14//1 13//1
f 2//2 14//2 16//2
f 1//3 13//3 18//3
f 1//4 18//4 20//4
f 1//5 20//5 17//5
f 2//6 16//6 23//6
f 3//7 15//7 25//7 47//7
f 4//8 19//8 27//8
f 5//9 21//9 29//9
f 6//10 22//10 31//10
f 2//11 23//11 26//11
f 3//12 47//12 25//12 28//12
f 4//13 27//13 30//13
f 5//14 29//14 32//14
f 6//15 31//15 24//15
f 7//16 33//16 38//16
f 8//17 34//17 40//17
f 9//18 35//18 41//18
f 10//19 36//19 42//19
f 11//20 37//20 39//20
f 39//21 42//21 12//21
f 39//22 37//22 42//22
f 37//23 10//23 42//23
f 42//24 41//24 12//24
f 42//25 36//25 41//25
f 36//26 9//26 41//26
f 41//27 40//27 12//27
f 41//28 35//28 40//28
f 35//29 8//29 40//29
f 40//30 38//30 12//30
f 40//31 34//31 38//31
f 34//32 7//32 38//32
f 38//33 39//33 12//33
f 38//34 33//34 39//34
f 33//35 11//35 39//35
f 24//36 37//36 11//36
f 24//37 31//37 37//37
f 31//38 10//38 37//38
f 32//39 36//39 10//39
f 32//40 29//40 36//40
f 29//41 9//41 36//41
f 30//42 35//42 9//42
f 30//43 27//43 35//43
f 27//44 8//44 35//44
f 28//45 34//45 8//45
f 28//46 25//46 48//46 34//46
f 25//47 7//47 34//47 48//47
f 26//48 33//48 7//48
f 26//49 23//49 33//49
f 23//50 11//50 33//50
f 31//51 32//51 10//51
f 31//52 22//52 32//52
f 22//53 5//53 32//53
f 29//54 30//54 9//54
f 29//55 21//55 30//55
f 21//56 4//56 30//56
f 27//57 28//57 8//57
f 27//58 19//58 28//58
f 19//59 44//59 3//59 28//59
f 25//60 26//60 7//60
f 25//61 15//61 26//61
f 15//62 2//62 26//62
f 23//63 24//63 11//63
f 23//64 16//64 24//64
f 16//65 6//65 24//65
f 17//66 22//66 6//66
f 17//67 20//67 22//67
f 20//68 5//68 22//68
f 20//69 21//69 5//69
f 20//70 18//70 21//70
f 18//71 4//71 21//71
f 18//72 45//72 19//72 4//72
f 45//73 46//73 43//73 19//73
f 46//74 44//74 19//74 43//74
f 16//75 17//75 6//75
f 16//76 14//76 17//76
f 14//77 1//77 17//77
f 13//78 15//78 3//78
f 13//79 14//79 15//79
f 14//80 2//80 15//80
f 13//81 3//81 44//81 46//81
f 18//82 13//82 46//82 45//82
